<svg xmlns="http://www.w3.org/2000/svg" width="640" height="720" viewBox="0 0 640 720">
<!-- PLACEHOLDER: flat shapes, no gradients/glow. Generated by art-direction-agent. Swap file at same path for final art. -->
<title>menu-wall (placeholder)</title>
<polygon points="0,0 637,0 638,40 638,80 640,120 638,160 639,200 632,240 636,280 640,320 637,360 639,400 633,440 636,480 634,520 636,560 637,600 632,640 634,680 634,720 0,720" fill="#9C3B2E" /><rect x="0" y="0" width="640" height="3" fill="#7A2F25" /><rect x="0" y="0" width="3" height="24" fill="#7A2F25" /><rect x="60" y="0" width="3" height="24" fill="#7A2F25" /><rect x="120" y="0" width="3" height="24" fill="#7A2F25" /><rect x="180" y="0" width="3" height="24" fill="#7A2F25" /><rect x="240" y="0" width="3" height="24" fill="#7A2F25" /><rect x="300" y="0" width="3" height="24" fill="#7A2F25" /><rect x="360" y="0" width="3" height="24" fill="#7A2F25" /><rect x="420" y="0" width="3" height="24" fill="#7A2F25" /><rect x="480" y="0" width="3" height="24" fill="#7A2F25" /><rect x="540" y="0" width="3" height="24" fill="#7A2F25" /><rect x="600" y="0" width="3" height="24" fill="#7A2F25" /><rect x="423" y="3" width="57" height="21" fill="#A9473A" /><rect x="0" y="24" width="640" height="3" fill="#7A2F25" /><rect x="30" y="24" width="3" height="24" fill="#7A2F25" /><rect x="90" y="24" width="3" height="24" fill="#7A2F25" /><rect x="150" y="24" width="3" height="24" fill="#7A2F25" /><rect x="210" y="24" width="3" height="24" fill="#7A2F25" /><rect x="270" y="24" width="3" height="24" fill="#7A2F25" /><rect x="330" y="24" width="3" height="24" fill="#7A2F25" /><rect x="390" y="24" width="3" height="24" fill="#7A2F25" /><rect x="450" y="24" width="3" height="24" fill="#7A2F25" /><rect x="510" y="24" width="3" height="24" fill="#7A2F25" /><rect x="570" y="24" width="3" height="24" fill="#7A2F25" /><rect x="630" y="24" width="3" height="24" fill="#7A2F25" /><rect x="0" y="48" width="640" height="3" fill="#7A2F25" /><rect x="0" y="48" width="3" height="24" fill="#7A2F25" /><rect x="60" y="48" width="3" height="24" fill="#7A2F25" /><rect x="120" y="48" width="3" height="24" fill="#7A2F25" /><rect x="180" y="48" width="3" height="24" fill="#7A2F25" /><rect x="240" y="48" width="3" height="24" fill="#7A2F25" /><rect x="300" y="48" width="3" height="24" fill="#7A2F25" /><rect x="360" y="48" width="3" height="24" fill="#7A2F25" /><rect x="420" y="48" width="3" height="24" fill="#7A2F25" /><rect x="480" y="48" width="3" height="24" fill="#7A2F25" /><rect x="540" y="48" width="3" height="24" fill="#7A2F25" /><rect x="600" y="48" width="3" height="24" fill="#7A2F25" /><rect x="183" y="51" width="57" height="21" fill="#7A2F25" /><rect x="303" y="51" width="57" height="21" fill="#A9473A" /><rect x="0" y="72" width="640" height="3" fill="#7A2F25" /><rect x="30" y="72" width="3" height="24" fill="#7A2F25" /><rect x="90" y="72" width="3" height="24" fill="#7A2F25" /><rect x="150" y="72" width="3" height="24" fill="#7A2F25" /><rect x="210" y="72" width="3" height="24" fill="#7A2F25" /><rect x="270" y="72" width="3" height="24" fill="#7A2F25" /><rect x="330" y="72" width="3" height="24" fill="#7A2F25" /><rect x="390" y="72" width="3" height="24" fill="#7A2F25" /><rect x="450" y="72" width="3" height="24" fill="#7A2F25" /><rect x="510" y="72" width="3" height="24" fill="#7A2F25" /><rect x="570" y="72" width="3" height="24" fill="#7A2F25" /><rect x="630" y="72" width="3" height="24" fill="#7A2F25" /><rect x="153" y="75" width="57" height="21" fill="#A9473A" /><rect x="213" y="75" width="57" height="21" fill="#A9473A" /><rect x="333" y="75" width="57" height="21" fill="#A9473A" /><rect x="513" y="75" width="57" height="21" fill="#7A2F25" /><rect x="0" y="96" width="640" height="3" fill="#7A2F25" /><rect x="0" y="96" width="3" height="24" fill="#7A2F25" /><rect x="60" y="96" width="3" height="24" fill="#7A2F25" /><rect x="120" y="96" width="3" height="24" fill="#7A2F25" /><rect x="180" y="96" width="3" height="24" fill="#7A2F25" /><rect x="240" y="96" width="3" height="24" fill="#7A2F25" /><rect x="300" y="96" width="3" height="24" fill="#7A2F25" /><rect x="360" y="96" width="3" height="24" fill="#7A2F25" /><rect x="420" y="96" width="3" height="24" fill="#7A2F25" /><rect x="480" y="96" width="3" height="24" fill="#7A2F25" /><rect x="540" y="96" width="3" height="24" fill="#7A2F25" /><rect x="600" y="96" width="3" height="24" fill="#7A2F25" /><rect x="483" y="99" width="57" height="21" fill="#A9473A" /><rect x="0" y="120" width="640" height="3" fill="#7A2F25" /><rect x="30" y="120" width="3" height="24" fill="#7A2F25" /><rect x="90" y="120" width="3" height="24" fill="#7A2F25" /><rect x="150" y="120" width="3" height="24" fill="#7A2F25" /><rect x="210" y="120" width="3" height="24" fill="#7A2F25" /><rect x="270" y="120" width="3" height="24" fill="#7A2F25" /><rect x="330" y="120" width="3" height="24" fill="#7A2F25" /><rect x="390" y="120" width="3" height="24" fill="#7A2F25" /><rect x="450" y="120" width="3" height="24" fill="#7A2F25" /><rect x="510" y="120" width="3" height="24" fill="#7A2F25" /><rect x="570" y="120" width="3" height="24" fill="#7A2F25" /><rect x="630" y="120" width="3" height="24" fill="#7A2F25" /><rect x="33" y="123" width="57" height="21" fill="#A9473A" /><rect x="93" y="123" width="57" height="21" fill="#7A2F25" /><rect x="633" y="123" width="57" height="21" fill="#7A2F25" /><rect x="0" y="144" width="640" height="3" fill="#7A2F25" /><rect x="0" y="144" width="3" height="24" fill="#7A2F25" /><rect x="60" y="144" width="3" height="24" fill="#7A2F25" /><rect x="120" y="144" width="3" height="24" fill="#7A2F25" /><rect x="180" y="144" width="3" height="24" fill="#7A2F25" /><rect x="240" y="144" width="3" height="24" fill="#7A2F25" /><rect x="300" y="144" width="3" height="24" fill="#7A2F25" /><rect x="360" y="144" width="3" height="24" fill="#7A2F25" /><rect x="420" y="144" width="3" height="24" fill="#7A2F25" /><rect x="480" y="144" width="3" height="24" fill="#7A2F25" /><rect x="540" y="144" width="3" height="24" fill="#7A2F25" /><rect x="600" y="144" width="3" height="24" fill="#7A2F25" /><rect x="183" y="147" width="57" height="21" fill="#A9473A" /><rect x="0" y="168" width="640" height="3" fill="#7A2F25" /><rect x="30" y="168" width="3" height="24" fill="#7A2F25" /><rect x="90" y="168" width="3" height="24" fill="#7A2F25" /><rect x="150" y="168" width="3" height="24" fill="#7A2F25" /><rect x="210" y="168" width="3" height="24" fill="#7A2F25" /><rect x="270" y="168" width="3" height="24" fill="#7A2F25" /><rect x="330" y="168" width="3" height="24" fill="#7A2F25" /><rect x="390" y="168" width="3" height="24" fill="#7A2F25" /><rect x="450" y="168" width="3" height="24" fill="#7A2F25" /><rect x="510" y="168" width="3" height="24" fill="#7A2F25" /><rect x="570" y="168" width="3" height="24" fill="#7A2F25" /><rect x="630" y="168" width="3" height="24" fill="#7A2F25" /><rect x="33" y="171" width="57" height="21" fill="#A9473A" /><rect x="93" y="171" width="57" height="21" fill="#7A2F25" /><rect x="513" y="171" width="57" height="21" fill="#7A2F25" /><rect x="0" y="192" width="640" height="3" fill="#7A2F25" /><rect x="0" y="192" width="3" height="24" fill="#7A2F25" /><rect x="60" y="192" width="3" height="24" fill="#7A2F25" /><rect x="120" y="192" width="3" height="24" fill="#7A2F25" /><rect x="180" y="192" width="3" height="24" fill="#7A2F25" /><rect x="240" y="192" width="3" height="24" fill="#7A2F25" /><rect x="300" y="192" width="3" height="24" fill="#7A2F25" /><rect x="360" y="192" width="3" height="24" fill="#7A2F25" /><rect x="420" y="192" width="3" height="24" fill="#7A2F25" /><rect x="480" y="192" width="3" height="24" fill="#7A2F25" /><rect x="540" y="192" width="3" height="24" fill="#7A2F25" /><rect x="600" y="192" width="3" height="24" fill="#7A2F25" /><rect x="0" y="216" width="640" height="3" fill="#7A2F25" /><rect x="30" y="216" width="3" height="24" fill="#7A2F25" /><rect x="90" y="216" width="3" height="24" fill="#7A2F25" /><rect x="150" y="216" width="3" height="24" fill="#7A2F25" /><rect x="210" y="216" width="3" height="24" fill="#7A2F25" /><rect x="270" y="216" width="3" height="24" fill="#7A2F25" /><rect x="330" y="216" width="3" height="24" fill="#7A2F25" /><rect x="390" y="216" width="3" height="24" fill="#7A2F25" /><rect x="450" y="216" width="3" height="24" fill="#7A2F25" /><rect x="510" y="216" width="3" height="24" fill="#7A2F25" /><rect x="570" y="216" width="3" height="24" fill="#7A2F25" /><rect x="630" y="216" width="3" height="24" fill="#7A2F25" /><rect x="453" y="219" width="57" height="21" fill="#7A2F25" /><rect x="0" y="240" width="640" height="3" fill="#7A2F25" /><rect x="0" y="240" width="3" height="24" fill="#7A2F25" /><rect x="60" y="240" width="3" height="24" fill="#7A2F25" /><rect x="120" y="240" width="3" height="24" fill="#7A2F25" /><rect x="180" y="240" width="3" height="24" fill="#7A2F25" /><rect x="240" y="240" width="3" height="24" fill="#7A2F25" /><rect x="300" y="240" width="3" height="24" fill="#7A2F25" /><rect x="360" y="240" width="3" height="24" fill="#7A2F25" /><rect x="420" y="240" width="3" height="24" fill="#7A2F25" /><rect x="480" y="240" width="3" height="24" fill="#7A2F25" /><rect x="540" y="240" width="3" height="24" fill="#7A2F25" /><rect x="600" y="240" width="3" height="24" fill="#7A2F25" /><rect x="0" y="264" width="640" height="3" fill="#7A2F25" /><rect x="30" y="264" width="3" height="24" fill="#7A2F25" /><rect x="90" y="264" width="3" height="24" fill="#7A2F25" /><rect x="150" y="264" width="3" height="24" fill="#7A2F25" /><rect x="210" y="264" width="3" height="24" fill="#7A2F25" /><rect x="270" y="264" width="3" height="24" fill="#7A2F25" /><rect x="330" y="264" width="3" height="24" fill="#7A2F25" /><rect x="390" y="264" width="3" height="24" fill="#7A2F25" /><rect x="450" y="264" width="3" height="24" fill="#7A2F25" /><rect x="510" y="264" width="3" height="24" fill="#7A2F25" /><rect x="570" y="264" width="3" height="24" fill="#7A2F25" /><rect x="630" y="264" width="3" height="24" fill="#7A2F25" /><rect x="273" y="267" width="57" height="21" fill="#A9473A" /><rect x="0" y="288" width="640" height="3" fill="#7A2F25" /><rect x="0" y="288" width="3" height="24" fill="#7A2F25" /><rect x="60" y="288" width="3" height="24" fill="#7A2F25" /><rect x="120" y="288" width="3" height="24" fill="#7A2F25" /><rect x="180" y="288" width="3" height="24" fill="#7A2F25" /><rect x="240" y="288" width="3" height="24" fill="#7A2F25" /><rect x="300" y="288" width="3" height="24" fill="#7A2F25" /><rect x="360" y="288" width="3" height="24" fill="#7A2F25" /><rect x="420" y="288" width="3" height="24" fill="#7A2F25" /><rect x="480" y="288" width="3" height="24" fill="#7A2F25" /><rect x="540" y="288" width="3" height="24" fill="#7A2F25" /><rect x="600" y="288" width="3" height="24" fill="#7A2F25" /><rect x="0" y="312" width="640" height="3" fill="#7A2F25" /><rect x="30" y="312" width="3" height="24" fill="#7A2F25" /><rect x="90" y="312" width="3" height="24" fill="#7A2F25" /><rect x="150" y="312" width="3" height="24" fill="#7A2F25" /><rect x="210" y="312" width="3" height="24" fill="#7A2F25" /><rect x="270" y="312" width="3" height="24" fill="#7A2F25" /><rect x="330" y="312" width="3" height="24" fill="#7A2F25" /><rect x="390" y="312" width="3" height="24" fill="#7A2F25" /><rect x="450" y="312" width="3" height="24" fill="#7A2F25" /><rect x="510" y="312" width="3" height="24" fill="#7A2F25" /><rect x="570" y="312" width="3" height="24" fill="#7A2F25" /><rect x="630" y="312" width="3" height="24" fill="#7A2F25" /><rect x="0" y="336" width="640" height="3" fill="#7A2F25" /><rect x="0" y="336" width="3" height="24" fill="#7A2F25" /><rect x="60" y="336" width="3" height="24" fill="#7A2F25" /><rect x="120" y="336" width="3" height="24" fill="#7A2F25" /><rect x="180" y="336" width="3" height="24" fill="#7A2F25" /><rect x="240" y="336" width="3" height="24" fill="#7A2F25" /><rect x="300" y="336" width="3" height="24" fill="#7A2F25" /><rect x="360" y="336" width="3" height="24" fill="#7A2F25" /><rect x="420" y="336" width="3" height="24" fill="#7A2F25" /><rect x="480" y="336" width="3" height="24" fill="#7A2F25" /><rect x="540" y="336" width="3" height="24" fill="#7A2F25" /><rect x="600" y="336" width="3" height="24" fill="#7A2F25" /><rect x="363" y="339" width="57" height="21" fill="#7A2F25" /><rect x="0" y="360" width="640" height="3" fill="#7A2F25" /><rect x="30" y="360" width="3" height="24" fill="#7A2F25" /><rect x="90" y="360" width="3" height="24" fill="#7A2F25" /><rect x="150" y="360" width="3" height="24" fill="#7A2F25" /><rect x="210" y="360" width="3" height="24" fill="#7A2F25" /><rect x="270" y="360" width="3" height="24" fill="#7A2F25" /><rect x="330" y="360" width="3" height="24" fill="#7A2F25" /><rect x="390" y="360" width="3" height="24" fill="#7A2F25" /><rect x="450" y="360" width="3" height="24" fill="#7A2F25" /><rect x="510" y="360" width="3" height="24" fill="#7A2F25" /><rect x="570" y="360" width="3" height="24" fill="#7A2F25" /><rect x="630" y="360" width="3" height="24" fill="#7A2F25" /><rect x="93" y="363" width="57" height="21" fill="#7A2F25" /><rect x="213" y="363" width="57" height="21" fill="#7A2F25" /><rect x="453" y="363" width="57" height="21" fill="#7A2F25" /><rect x="0" y="384" width="640" height="3" fill="#7A2F25" /><rect x="0" y="384" width="3" height="24" fill="#7A2F25" /><rect x="60" y="384" width="3" height="24" fill="#7A2F25" /><rect x="120" y="384" width="3" height="24" fill="#7A2F25" /><rect x="180" y="384" width="3" height="24" fill="#7A2F25" /><rect x="240" y="384" width="3" height="24" fill="#7A2F25" /><rect x="300" y="384" width="3" height="24" fill="#7A2F25" /><rect x="360" y="384" width="3" height="24" fill="#7A2F25" /><rect x="420" y="384" width="3" height="24" fill="#7A2F25" /><rect x="480" y="384" width="3" height="24" fill="#7A2F25" /><rect x="540" y="384" width="3" height="24" fill="#7A2F25" /><rect x="600" y="384" width="3" height="24" fill="#7A2F25" /><rect x="123" y="387" width="57" height="21" fill="#7A2F25" /><rect x="303" y="387" width="57" height="21" fill="#A9473A" /><rect x="423" y="387" width="57" height="21" fill="#A9473A" /><rect x="483" y="387" width="57" height="21" fill="#A9473A" /><rect x="0" y="408" width="640" height="3" fill="#7A2F25" /><rect x="30" y="408" width="3" height="24" fill="#7A2F25" /><rect x="90" y="408" width="3" height="24" fill="#7A2F25" /><rect x="150" y="408" width="3" height="24" fill="#7A2F25" /><rect x="210" y="408" width="3" height="24" fill="#7A2F25" /><rect x="270" y="408" width="3" height="24" fill="#7A2F25" /><rect x="330" y="408" width="3" height="24" fill="#7A2F25" /><rect x="390" y="408" width="3" height="24" fill="#7A2F25" /><rect x="450" y="408" width="3" height="24" fill="#7A2F25" /><rect x="510" y="408" width="3" height="24" fill="#7A2F25" /><rect x="570" y="408" width="3" height="24" fill="#7A2F25" /><rect x="630" y="408" width="3" height="24" fill="#7A2F25" /><rect x="0" y="432" width="640" height="3" fill="#7A2F25" /><rect x="0" y="432" width="3" height="24" fill="#7A2F25" /><rect x="60" y="432" width="3" height="24" fill="#7A2F25" /><rect x="120" y="432" width="3" height="24" fill="#7A2F25" /><rect x="180" y="432" width="3" height="24" fill="#7A2F25" /><rect x="240" y="432" width="3" height="24" fill="#7A2F25" /><rect x="300" y="432" width="3" height="24" fill="#7A2F25" /><rect x="360" y="432" width="3" height="24" fill="#7A2F25" /><rect x="420" y="432" width="3" height="24" fill="#7A2F25" /><rect x="480" y="432" width="3" height="24" fill="#7A2F25" /><rect x="540" y="432" width="3" height="24" fill="#7A2F25" /><rect x="600" y="432" width="3" height="24" fill="#7A2F25" /><rect x="183" y="435" width="57" height="21" fill="#7A2F25" /><rect x="0" y="456" width="640" height="3" fill="#7A2F25" /><rect x="30" y="456" width="3" height="24" fill="#7A2F25" /><rect x="90" y="456" width="3" height="24" fill="#7A2F25" /><rect x="150" y="456" width="3" height="24" fill="#7A2F25" /><rect x="210" y="456" width="3" height="24" fill="#7A2F25" /><rect x="270" y="456" width="3" height="24" fill="#7A2F25" /><rect x="330" y="456" width="3" height="24" fill="#7A2F25" /><rect x="390" y="456" width="3" height="24" fill="#7A2F25" /><rect x="450" y="456" width="3" height="24" fill="#7A2F25" /><rect x="510" y="456" width="3" height="24" fill="#7A2F25" /><rect x="570" y="456" width="3" height="24" fill="#7A2F25" /><rect x="630" y="456" width="3" height="24" fill="#7A2F25" /><rect x="0" y="480" width="640" height="3" fill="#7A2F25" /><rect x="0" y="480" width="3" height="24" fill="#7A2F25" /><rect x="60" y="480" width="3" height="24" fill="#7A2F25" /><rect x="120" y="480" width="3" height="24" fill="#7A2F25" /><rect x="180" y="480" width="3" height="24" fill="#7A2F25" /><rect x="240" y="480" width="3" height="24" fill="#7A2F25" /><rect x="300" y="480" width="3" height="24" fill="#7A2F25" /><rect x="360" y="480" width="3" height="24" fill="#7A2F25" /><rect x="420" y="480" width="3" height="24" fill="#7A2F25" /><rect x="480" y="480" width="3" height="24" fill="#7A2F25" /><rect x="540" y="480" width="3" height="24" fill="#7A2F25" /><rect x="600" y="480" width="3" height="24" fill="#7A2F25" /><rect x="0" y="504" width="640" height="3" fill="#7A2F25" /><rect x="30" y="504" width="3" height="24" fill="#7A2F25" /><rect x="90" y="504" width="3" height="24" fill="#7A2F25" /><rect x="150" y="504" width="3" height="24" fill="#7A2F25" /><rect x="210" y="504" width="3" height="24" fill="#7A2F25" /><rect x="270" y="504" width="3" height="24" fill="#7A2F25" /><rect x="330" y="504" width="3" height="24" fill="#7A2F25" /><rect x="390" y="504" width="3" height="24" fill="#7A2F25" /><rect x="450" y="504" width="3" height="24" fill="#7A2F25" /><rect x="510" y="504" width="3" height="24" fill="#7A2F25" /><rect x="570" y="504" width="3" height="24" fill="#7A2F25" /><rect x="630" y="504" width="3" height="24" fill="#7A2F25" /><rect x="33" y="507" width="57" height="21" fill="#A9473A" /><rect x="0" y="528" width="640" height="3" fill="#7A2F25" /><rect x="0" y="528" width="3" height="24" fill="#7A2F25" /><rect x="60" y="528" width="3" height="24" fill="#7A2F25" /><rect x="120" y="528" width="3" height="24" fill="#7A2F25" /><rect x="180" y="528" width="3" height="24" fill="#7A2F25" /><rect x="240" y="528" width="3" height="24" fill="#7A2F25" /><rect x="300" y="528" width="3" height="24" fill="#7A2F25" /><rect x="360" y="528" width="3" height="24" fill="#7A2F25" /><rect x="420" y="528" width="3" height="24" fill="#7A2F25" /><rect x="480" y="528" width="3" height="24" fill="#7A2F25" /><rect x="540" y="528" width="3" height="24" fill="#7A2F25" /><rect x="600" y="528" width="3" height="24" fill="#7A2F25" /><rect x="183" y="531" width="57" height="21" fill="#A9473A" /><rect x="0" y="552" width="640" height="3" fill="#7A2F25" /><rect x="30" y="552" width="3" height="24" fill="#7A2F25" /><rect x="90" y="552" width="3" height="24" fill="#7A2F25" /><rect x="150" y="552" width="3" height="24" fill="#7A2F25" /><rect x="210" y="552" width="3" height="24" fill="#7A2F25" /><rect x="270" y="552" width="3" height="24" fill="#7A2F25" /><rect x="330" y="552" width="3" height="24" fill="#7A2F25" /><rect x="390" y="552" width="3" height="24" fill="#7A2F25" /><rect x="450" y="552" width="3" height="24" fill="#7A2F25" /><rect x="510" y="552" width="3" height="24" fill="#7A2F25" /><rect x="570" y="552" width="3" height="24" fill="#7A2F25" /><rect x="630" y="552" width="3" height="24" fill="#7A2F25" /><rect x="153" y="555" width="57" height="21" fill="#7A2F25" /><rect x="453" y="555" width="57" height="21" fill="#A9473A" /><rect x="0" y="576" width="640" height="3" fill="#7A2F25" /><rect x="0" y="576" width="3" height="24" fill="#7A2F25" /><rect x="60" y="576" width="3" height="24" fill="#7A2F25" /><rect x="120" y="576" width="3" height="24" fill="#7A2F25" /><rect x="180" y="576" width="3" height="24" fill="#7A2F25" /><rect x="240" y="576" width="3" height="24" fill="#7A2F25" /><rect x="300" y="576" width="3" height="24" fill="#7A2F25" /><rect x="360" y="576" width="3" height="24" fill="#7A2F25" /><rect x="420" y="576" width="3" height="24" fill="#7A2F25" /><rect x="480" y="576" width="3" height="24" fill="#7A2F25" /><rect x="540" y="576" width="3" height="24" fill="#7A2F25" /><rect x="600" y="576" width="3" height="24" fill="#7A2F25" /><rect x="543" y="579" width="57" height="21" fill="#A9473A" /><rect x="0" y="600" width="640" height="3" fill="#7A2F25" /><rect x="30" y="600" width="3" height="24" fill="#7A2F25" /><rect x="90" y="600" width="3" height="24" fill="#7A2F25" /><rect x="150" y="600" width="3" height="24" fill="#7A2F25" /><rect x="210" y="600" width="3" height="24" fill="#7A2F25" /><rect x="270" y="600" width="3" height="24" fill="#7A2F25" /><rect x="330" y="600" width="3" height="24" fill="#7A2F25" /><rect x="390" y="600" width="3" height="24" fill="#7A2F25" /><rect x="450" y="600" width="3" height="24" fill="#7A2F25" /><rect x="510" y="600" width="3" height="24" fill="#7A2F25" /><rect x="570" y="600" width="3" height="24" fill="#7A2F25" /><rect x="630" y="600" width="3" height="24" fill="#7A2F25" /><rect x="0" y="624" width="640" height="3" fill="#7A2F25" /><rect x="0" y="624" width="3" height="24" fill="#7A2F25" /><rect x="60" y="624" width="3" height="24" fill="#7A2F25" /><rect x="120" y="624" width="3" height="24" fill="#7A2F25" /><rect x="180" y="624" width="3" height="24" fill="#7A2F25" /><rect x="240" y="624" width="3" height="24" fill="#7A2F25" /><rect x="300" y="624" width="3" height="24" fill="#7A2F25" /><rect x="360" y="624" width="3" height="24" fill="#7A2F25" /><rect x="420" y="624" width="3" height="24" fill="#7A2F25" /><rect x="480" y="624" width="3" height="24" fill="#7A2F25" /><rect x="540" y="624" width="3" height="24" fill="#7A2F25" /><rect x="600" y="624" width="3" height="24" fill="#7A2F25" /><rect x="63" y="627" width="57" height="21" fill="#7A2F25" /><rect x="303" y="627" width="57" height="21" fill="#A9473A" /><rect x="543" y="627" width="57" height="21" fill="#A9473A" /><rect x="0" y="648" width="640" height="3" fill="#7A2F25" /><rect x="30" y="648" width="3" height="24" fill="#7A2F25" /><rect x="90" y="648" width="3" height="24" fill="#7A2F25" /><rect x="150" y="648" width="3" height="24" fill="#7A2F25" /><rect x="210" y="648" width="3" height="24" fill="#7A2F25" /><rect x="270" y="648" width="3" height="24" fill="#7A2F25" /><rect x="330" y="648" width="3" height="24" fill="#7A2F25" /><rect x="390" y="648" width="3" height="24" fill="#7A2F25" /><rect x="450" y="648" width="3" height="24" fill="#7A2F25" /><rect x="510" y="648" width="3" height="24" fill="#7A2F25" /><rect x="570" y="648" width="3" height="24" fill="#7A2F25" /><rect x="630" y="648" width="3" height="24" fill="#7A2F25" /><rect x="0" y="672" width="640" height="3" fill="#7A2F25" /><rect x="0" y="672" width="3" height="24" fill="#7A2F25" /><rect x="60" y="672" width="3" height="24" fill="#7A2F25" /><rect x="120" y="672" width="3" height="24" fill="#7A2F25" /><rect x="180" y="672" width="3" height="24" fill="#7A2F25" /><rect x="240" y="672" width="3" height="24" fill="#7A2F25" /><rect x="300" y="672" width="3" height="24" fill="#7A2F25" /><rect x="360" y="672" width="3" height="24" fill="#7A2F25" /><rect x="420" y="672" width="3" height="24" fill="#7A2F25" /><rect x="480" y="672" width="3" height="24" fill="#7A2F25" /><rect x="540" y="672" width="3" height="24" fill="#7A2F25" /><rect x="600" y="672" width="3" height="24" fill="#7A2F25" /><rect x="3" y="675" width="57" height="21" fill="#7A2F25" /><rect x="123" y="675" width="57" height="21" fill="#7A2F25" /><rect x="0" y="696" width="640" height="3" fill="#7A2F25" /><rect x="30" y="696" width="3" height="24" fill="#7A2F25" /><rect x="90" y="696" width="3" height="24" fill="#7A2F25" /><rect x="150" y="696" width="3" height="24" fill="#7A2F25" /><rect x="210" y="696" width="3" height="24" fill="#7A2F25" /><rect x="270" y="696" width="3" height="24" fill="#7A2F25" /><rect x="330" y="696" width="3" height="24" fill="#7A2F25" /><rect x="390" y="696" width="3" height="24" fill="#7A2F25" /><rect x="450" y="696" width="3" height="24" fill="#7A2F25" /><rect x="510" y="696" width="3" height="24" fill="#7A2F25" /><rect x="570" y="696" width="3" height="24" fill="#7A2F25" /><rect x="630" y="696" width="3" height="24" fill="#7A2F25" /><rect x="153" y="699" width="57" height="21" fill="#A9473A" /><rect x="0" y="590" width="640" height="18" fill="#1D1A16" /><rect x="0" y="590" width="640" height="5" fill="#6B4A2F" /><rect x="0" y="608" width="640" height="112" fill="#14110E" /><rect x="60" y="380" width="130" height="214" fill="#1D1A16" /><rect x="70" y="390" width="110" height="200" fill="#6B4A2F" /><rect x="70" y="390" width="110" height="4" fill="#1D1A16" /><rect x="70" y="430" width="110" height="4" fill="#1D1A16" /><rect x="70" y="470" width="110" height="4" fill="#1D1A16" /><rect x="70" y="510" width="110" height="4" fill="#1D1A16" /><rect x="70" y="550" width="110" height="4" fill="#1D1A16" /><polygon points="60,420 190,400 190,432 60,452" fill="#8A6340" /><polygon points="60,500 190,480 190,512 60,532" fill="#8A6340" /><circle cx="70" cy="436" r="3" fill="#1D1A16"/><circle cx="180" cy="416" r="3" fill="#1D1A16"/><circle cx="70" cy="516" r="3" fill="#1D1A16"/><circle cx="180" cy="496" r="3" fill="#1D1A16"/><rect x="420" y="120" width="150" height="8" fill="#1D1A16" /><line x1="424" y1="80" x2="424" y2="120" stroke="#1D1A16" stroke-width="2" stroke-linecap="square"/><line x1="444" y1="80" x2="444" y2="120" stroke="#1D1A16" stroke-width="2" stroke-linecap="square"/><line x1="464" y1="80" x2="464" y2="120" stroke="#1D1A16" stroke-width="2" stroke-linecap="square"/><line x1="484" y1="80" x2="484" y2="120" stroke="#1D1A16" stroke-width="2" stroke-linecap="square"/><line x1="504" y1="80" x2="504" y2="120" stroke="#1D1A16" stroke-width="2" stroke-linecap="square"/><line x1="524" y1="80" x2="524" y2="120" stroke="#1D1A16" stroke-width="2" stroke-linecap="square"/><line x1="544" y1="80" x2="544" y2="120" stroke="#1D1A16" stroke-width="2" stroke-linecap="square"/><line x1="564" y1="80" x2="564" y2="120" stroke="#1D1A16" stroke-width="2" stroke-linecap="square"/><line x1="420" y1="80" x2="570" y2="80" stroke="#1D1A16" stroke-width="4" stroke-linecap="square"/><polygon points="434,128 450,128 556,212 540,212" fill="#1D1A16" /><rect x="420" y="212" width="150" height="8" fill="#1D1A16" /><line x1="424" y1="172" x2="424" y2="212" stroke="#1D1A16" stroke-width="2" stroke-linecap="square"/><line x1="444" y1="172" x2="444" y2="212" stroke="#1D1A16" stroke-width="2" stroke-linecap="square"/><line x1="464" y1="172" x2="464" y2="212" stroke="#1D1A16" stroke-width="2" stroke-linecap="square"/><line x1="484" y1="172" x2="484" y2="212" stroke="#1D1A16" stroke-width="2" stroke-linecap="square"/><line x1="504" y1="172" x2="504" y2="212" stroke="#1D1A16" stroke-width="2" stroke-linecap="square"/><line x1="524" y1="172" x2="524" y2="212" stroke="#1D1A16" stroke-width="2" stroke-linecap="square"/><line x1="544" y1="172" x2="544" y2="212" stroke="#1D1A16" stroke-width="2" stroke-linecap="square"/><line x1="564" y1="172" x2="564" y2="212" stroke="#1D1A16" stroke-width="2" stroke-linecap="square"/><line x1="420" y1="172" x2="570" y2="172" stroke="#1D1A16" stroke-width="4" stroke-linecap="square"/><polygon points="434,220 450,220 556,304 540,304" fill="#1D1A16" /><rect x="420" y="304" width="150" height="8" fill="#1D1A16" /><line x1="424" y1="264" x2="424" y2="304" stroke="#1D1A16" stroke-width="2" stroke-linecap="square"/><line x1="444" y1="264" x2="444" y2="304" stroke="#1D1A16" stroke-width="2" stroke-linecap="square"/><line x1="464" y1="264" x2="464" y2="304" stroke="#1D1A16" stroke-width="2" stroke-linecap="square"/><line x1="484" y1="264" x2="484" y2="304" stroke="#1D1A16" stroke-width="2" stroke-linecap="square"/><line x1="504" y1="264" x2="504" y2="304" stroke="#1D1A16" stroke-width="2" stroke-linecap="square"/><line x1="524" y1="264" x2="524" y2="304" stroke="#1D1A16" stroke-width="2" stroke-linecap="square"/><line x1="544" y1="264" x2="544" y2="304" stroke="#1D1A16" stroke-width="2" stroke-linecap="square"/><line x1="564" y1="264" x2="564" y2="304" stroke="#1D1A16" stroke-width="2" stroke-linecap="square"/><line x1="420" y1="264" x2="570" y2="264" stroke="#1D1A16" stroke-width="4" stroke-linecap="square"/><polygon points="434,312 450,312 556,396 540,396" fill="#1D1A16" /><rect x="420" y="396" width="150" height="8" fill="#1D1A16" /><line x1="424" y1="356" x2="424" y2="396" stroke="#1D1A16" stroke-width="2" stroke-linecap="square"/><line x1="444" y1="356" x2="444" y2="396" stroke="#1D1A16" stroke-width="2" stroke-linecap="square"/><line x1="464" y1="356" x2="464" y2="396" stroke="#1D1A16" stroke-width="2" stroke-linecap="square"/><line x1="484" y1="356" x2="484" y2="396" stroke="#1D1A16" stroke-width="2" stroke-linecap="square"/><line x1="504" y1="356" x2="504" y2="396" stroke="#1D1A16" stroke-width="2" stroke-linecap="square"/><line x1="524" y1="356" x2="524" y2="396" stroke="#1D1A16" stroke-width="2" stroke-linecap="square"/><line x1="544" y1="356" x2="544" y2="396" stroke="#1D1A16" stroke-width="2" stroke-linecap="square"/><line x1="564" y1="356" x2="564" y2="396" stroke="#1D1A16" stroke-width="2" stroke-linecap="square"/><line x1="420" y1="356" x2="570" y2="356" stroke="#1D1A16" stroke-width="4" stroke-linecap="square"/><polygon points="434,404 450,404 556,488 540,488" fill="#1D1A16" /><rect x="420" y="488" width="150" height="8" fill="#1D1A16" /><line x1="424" y1="448" x2="424" y2="488" stroke="#1D1A16" stroke-width="2" stroke-linecap="square"/><line x1="444" y1="448" x2="444" y2="488" stroke="#1D1A16" stroke-width="2" stroke-linecap="square"/><line x1="464" y1="448" x2="464" y2="488" stroke="#1D1A16" stroke-width="2" stroke-linecap="square"/><line x1="484" y1="448" x2="484" y2="488" stroke="#1D1A16" stroke-width="2" stroke-linecap="square"/><line x1="504" y1="448" x2="504" y2="488" stroke="#1D1A16" stroke-width="2" stroke-linecap="square"/><line x1="524" y1="448" x2="524" y2="488" stroke="#1D1A16" stroke-width="2" stroke-linecap="square"/><line x1="544" y1="448" x2="544" y2="488" stroke="#1D1A16" stroke-width="2" stroke-linecap="square"/><line x1="564" y1="448" x2="564" y2="488" stroke="#1D1A16" stroke-width="2" stroke-linecap="square"/><line x1="420" y1="448" x2="570" y2="448" stroke="#1D1A16" stroke-width="4" stroke-linecap="square"/><polygon points="0,720 8,658 20,683 34,720" fill="#2F5D3A" /><polygon points="10,690 30,680 36,696" fill="#3C7048" /><polygon points="10,662 30,652 36,668" fill="#2F5D3A" /><polygon points="50,720 58,654 70,680 84,720" fill="#2F5D3A" /><polygon points="60,690 80,680 86,696" fill="#3C7048" /><polygon points="60,662 80,652 86,668" fill="#2F5D3A" /><polygon points="92,720 100,673 112,692 126,720" fill="#2F5D3A" /><polygon points="102,690 122,680 128,696" fill="#3C7048" /><polygon points="125,720 133,580 145,636 159,720" fill="#2F5D3A" /><polygon points="135,690 155,680 161,696" fill="#3C7048" /><polygon points="135,662 155,652 161,668" fill="#2F5D3A" /><polygon points="135,634 155,624 161,640" fill="#3C7048" /><polygon points="135,606 155,596 161,612" fill="#2F5D3A" /><polygon points="162,720 170,632 182,667 196,720" fill="#2F5D3A" /><polygon points="172,690 192,680 198,696" fill="#3C7048" /><polygon points="172,662 192,652 198,668" fill="#2F5D3A" /><polygon points="211,720 219,641 231,673 245,720" fill="#2F5D3A" /><polygon points="221,690 241,680 247,696" fill="#3C7048" /><polygon points="221,662 241,652 247,668" fill="#2F5D3A" /><polygon points="242,720 250,674 262,692 276,720" fill="#2F5D3A" /><polygon points="252,690 272,680 278,696" fill="#3C7048" /><polygon points="290,720 298,688 310,701 324,720" fill="#2F5D3A" /><polygon points="300,690 320,680 326,696" fill="#3C7048" /><polygon points="336,720 344,647 356,676 370,720" fill="#2F5D3A" /><polygon points="346,690 366,680 372,696" fill="#3C7048" /><polygon points="346,662 366,652 372,668" fill="#2F5D3A" /><polygon points="364,720 372,617 384,658 398,720" fill="#2F5D3A" /><polygon points="374,690 394,680 400,696" fill="#3C7048" /><polygon points="374,662 394,652 400,668" fill="#2F5D3A" /><polygon points="374,634 394,624 400,640" fill="#3C7048" /><polygon points="411,720 419,686 431,700 445,720" fill="#2F5D3A" /><polygon points="421,690 441,680 447,696" fill="#3C7048" /><polygon points="439,720 447,580 459,636 473,720" fill="#2F5D3A" /><polygon points="449,690 469,680 475,696" fill="#3C7048" /><polygon points="449,662 469,652 475,668" fill="#2F5D3A" /><polygon points="449,634 469,624 475,640" fill="#3C7048" /><polygon points="449,606 469,596 475,612" fill="#2F5D3A" /><polygon points="468,720 476,626 488,664 502,720" fill="#2F5D3A" /><polygon points="478,690 498,680 504,696" fill="#3C7048" /><polygon points="478,662 498,652 504,668" fill="#2F5D3A" /><polygon points="478,634 498,624 504,640" fill="#3C7048" /><polygon points="513,720 521,632 533,667 547,720" fill="#2F5D3A" /><polygon points="523,690 543,680 549,696" fill="#3C7048" /><polygon points="523,662 543,652 549,668" fill="#2F5D3A" /><polygon points="546,720 554,641 566,673 580,720" fill="#2F5D3A" /><polygon points="556,690 576,680 582,696" fill="#3C7048" /><polygon points="556,662 576,652 582,668" fill="#2F5D3A" /><polygon points="586,720 594,629 606,665 620,720" fill="#2F5D3A" /><polygon points="596,690 616,680 622,696" fill="#3C7048" /><polygon points="596,662 616,652 622,668" fill="#2F5D3A" /><polygon points="596,634 616,624 622,640" fill="#3C7048" /><polygon points="622,720 630,677 642,694 656,720" fill="#2F5D3A" /><polygon points="632,690 652,680 658,696" fill="#3C7048" /><polygon points="0,720 0,680 30,690 60,673 90,667 120,678 150,689 180,686 210,677 240,669 270,683 300,667 330,687 360,688 390,669 420,675 450,684 480,686 510,668 540,671 570,678 600,679 630,683 640,720" fill="#2F5D3A" />
</svg>
